<?xml version="1.0" encoding="UTF-8" standalone="no"?>
<svg
   xmlns:dc="http://purl.org/dc/elements/1.1/"
   xmlns:cc="http://creativecommons.org/ns#"
   xmlns:rdf="http://www.w3.org/1999/02/22-rdf-syntax-ns#"
   xmlns:svg="http://www.w3.org/2000/svg"
   xmlns="http://www.w3.org/2000/svg"
   version="1.1"
   id="svg3336"
   enable-background="new 0.414 0 16 16"
   viewBox="0.414 0 16 16"
   height="16"
   width="16">
  <metadata
     id="metadata3346">
    <rdf:RDF>
      <cc:Work
         rdf:about="">
        <dc:format>image/svg+xml</dc:format>
        <dc:type
           rdf:resource="http://purl.org/dc/dcmitype/StillImage" />
        <dc:title></dc:title>
      </cc:Work>
    </rdf:RDF>
  </metadata>
  <defs
     id="defs3344" />
  <!-- backdrop -->
  <path
     id="path6"
     d="M12.363 4c-.252-2.244-2.139-4-4.449-4-2.481 0-4.5 2.019-4.5 4.5 0 .6.12 1.188.35 1.735l-3.764 3.765 2.414 2.414 3-2.999v6.585h11v-12h-4.051z"
     fill="#252626" />
  <!-- document -->
  <path
     id="path3338"
     d="M12.363 5c-.039.347-.112.681-.226 1h2.276v8h-7v-5.05c-.342-.039-.676-.112-1-.228v6.278h9v-10h-3.05z"
     fill="#C5C5C5" />
  <!-- magnifying glass -->
  <path
     id="path3340"
     d="M11.414 4.5c0-1.933-1.567-3.5-3.5-3.5s-3.5 1.567-3.5 3.5c0 .711.215 1.369.579 1.922l-3.579 3.578 1 1 3.579-3.578c.552.363 1.211.578 1.921.578 1.933 0 3.5-1.567 3.5-3.5zm-5.999 0c0-1.381 1.119-2.5 2.5-2.5s2.5 1.119 2.5 2.5-1.12 2.5-2.5 2.5-2.5-1.119-2.5-2.5z"
     fill="#75beff" />
  <!-- lines -->
  <path
     id="rect4181"
     transform="translate(0.414,0)"
     d="M 10.34375 7.984375 A 4.5 4.5 0 0 1 8 8.9667969 L 8 8.984375 L 13 8.984375 L 13 7.984375 L 10.34375 7.984375 z "
     fill="#C5C5C5" />
  <rect
     x="8.4139996"
     y="12"
     width="5"
     height="1"
     id="rect4179"
     fill="#C5C5C5" />
  <rect
     fill="#C5C5C5"
     id="rect4183"
     height="1"
     width="5"
     y="9.9834709"
     x="8.4139996" />
</svg>
