<?xml version="1.0" encoding="UTF-8" standalone="no"?>
<svg
   xmlns:dc="http://purl.org/dc/elements/1.1/"
   xmlns:cc="http://creativecommons.org/ns#"
   xmlns:rdf="http://www.w3.org/1999/02/22-rdf-syntax-ns#"
   xmlns:svg="http://www.w3.org/2000/svg"
   xmlns="http://www.w3.org/2000/svg"
   id="svg2"
   xml:space="preserve"
   style="enable-background:new 0 0 16 16;"
   viewBox="0 0 16 16"
   y="0px"
   x="0px"
   version="1.1"><metadata
     id="metadata16"><rdf:RDF><cc:Work
         rdf:about=""><dc:format>image/svg+xml</dc:format><dc:type
           rdf:resource="http://purl.org/dc/dcmitype/StillImage" /><dc:title></dc:title></cc:Work></rdf:RDF></metadata><defs
     id="defs14" /><style
     id="style4"
     type="text/css">
	.st0{fill:#C5C5C5;}
</style><g
     id="canvas" /><g
     id="outline" /><g
     id="iconFg" /><g
     id="iconBg"><path
       id="path10"
       d="M9,5h5v2.4c0.4,0.2,0.7,0.4,1,0.7V2H1v12h5.6L9,11.6V5z M2,13V5h5v8H2z M11.3,12.7c0.4,0.2,0.8,0.3,1.2,0.3   c1.4,0,2.5-1.1,2.5-2.5C15,9.1,13.9,8,12.5,8C11.1,8,10,9.1,10,10.5c0,0.4,0.1,0.8,0.3,1.2L8,14l1,1L11.3,12.7z M11,10.5   C11,9.7,11.7,9,12.5,9c0.8,0,1.5,0.7,1.5,1.5c0,0.8-0.7,1.5-1.5,1.5C11.7,12,11,11.3,11,10.5z"
       class="st0" /></g></svg>